<svg xmlns="http://www.w3.org/2000/svg" xmlns:xlink="http://www.w3.org/1999/xlink" width="14cm" height="16cm" viewBox="4 7 273 316"><g><ellipse cx="89.088" cy="35.766" fill="#fff" rx="82" ry="27"/><ellipse cx="89.088" cy="35.766" fill="none" fill-opacity="0" stroke="#000" stroke-width="2" rx="82" ry="27"/></g><g><ellipse cx="87.888" cy="170.688" fill="#000" rx="82" ry="27"/><ellipse cx="87.888" cy="170.688" fill="none" fill-opacity="0" stroke="#000" stroke-width="2" rx="82" ry="27"/></g><g><path fill="none" fill-opacity="0" stroke="#000" stroke-width="2" d="M 67.0438,62.6046 A 86.9421,86.9421 0 0 0 66.5601,136.198"/><polygon fill="#000" points="69.935 142.85 60.493 136.863 66.066 136.425 69.06 131.704"/><polygon fill="none" fill-opacity="0" stroke="#000" stroke-width="2" points="69.935 142.85 60.493 136.863 66.066 136.425 69.06 131.704"/></g><g><path fill="none" fill-opacity="0" stroke="#000" stroke-width="2" d="M 108.485,142.121 A 62.5199,62.5199 0 0 0 114.068,69.9912"/><polygon fill="#000" points="109.916 63.84 120.157 68.326 114.714 69.604 112.471 74.724"/><polygon fill="none" fill-opacity="0" stroke="#000" stroke-width="2" points="109.916 63.84 120.157 68.326 114.714 69.604 112.471 74.724"/></g><text x="57.088" y="40.059" fill="#000" font-family="serif" font-size="18.062" font-style="normal" font-weight="normal" text-anchor="start"><tspan x="57.088" y="40.059">original</tspan></text><text x="49.393" y="176.464" fill="#000" font-family="serif" font-size="18.062" font-style="normal" font-weight="normal" text-anchor="start"><tspan x="49.393" y="176.464">canonical</tspan></text><g><path fill="none" fill-opacity="0" stroke="#000" stroke-width="2" d="M 159.088 155.438 C 199.088,143.938 199.088,193.938 168.612,187.461"/><polygon fill="#000" points="161.276 185.902 172.096 183.09 168.612 187.461 170.018 192.872"/><polygon fill="none" fill-opacity="0" stroke="#000" stroke-width="2" points="161.276 185.902 172.096 183.09 168.612 187.461 170.018 192.872"/></g><text x="29.795" y="104.544" fill="#000" font-family="serif" font-size="15.804" font-style="normal" font-weight="normal" text-anchor="start"><tspan x="29.795" y="104.544">nit</tspan></text><text x="132.017" y="105.352" fill="#000" font-family="serif" font-size="15.804" font-style="normal" font-weight="normal" text-anchor="start"><tspan x="132.017" y="105.352">edit</tspan></text><text x="194.139" y="177.473" fill="#000" font-family="serif" font-size="15.804" font-style="normal" font-weight="normal" text-anchor="start"><tspan x="194.139" y="177.473">nit (no-op)</tspan></text></svg>