<svg xmlns="http://www.w3.org/2000/svg" xmlns:xlink="http://www.w3.org/1999/xlink" width="134pt" height="332pt" viewBox="0 0 134 332"><g id="graph0" class="graph" transform="scale(1 1) rotate(0) translate(4 328)"><title>%3</title><polygon fill="#fff" stroke="none" points="-4 4 -4 -328 130 -328 130 4 -4 4"/><g id="node1" class="node"><title>a</title><ellipse cx="71" cy="-306" fill="none" stroke="#000" rx="27" ry="18"/><text x="71" y="-302.3" font-family="serif" font-size="14" text-anchor="middle">a</text></g><g id="node2" class="node"><title>b</title><ellipse cx="99" cy="-234" fill="none" stroke="#000" rx="27" ry="18"/><text x="99" y="-230.3" font-family="serif" font-size="14" text-anchor="middle">b</text></g><g id="edge1" class="edge"><title>a--b</title><path fill="none" stroke="#000" stroke-width="3" d="M77.6356,-288.411C82.099,-277.252 87.9586,-262.604 92.412,-251.47"/></g><g id="node3" class="node"><title>d</title><ellipse cx="44" cy="-162" fill="none" stroke="#000" rx="27" ry="18"/><text x="44" y="-158.3" font-family="serif" font-size="14" text-anchor="middle">d</text></g><g id="edge8" class="edge"><title>a--d</title><path fill="none" stroke="#000" d="M67.7432,-287.871C62.5536,-260.578 52.4652,-207.52 47.2684,-180.189"/></g><g id="edge2" class="edge"><title>b--d</title><path fill="none" stroke="#000" stroke-width="3" d="M87.0658,-217.811C77.8405,-206.07 65.1304,-189.893 55.9109,-178.159"/></g><g id="node4" class="node"><title>c</title><ellipse cx="99" cy="-90" fill="none" stroke="#000" rx="27" ry="18"/><text x="99" y="-86.3" font-family="serif" font-size="14" text-anchor="middle">c</text></g><g id="edge5" class="edge"><title>b--c</title><path fill="none" stroke="#000" d="M99,-215.871C99,-188.578 99,-135.52 99,-108.189"/></g><g id="edge3" class="edge"><title>d--c</title><path fill="none" stroke="#000" stroke-width="3" d="M55.9342,-145.811C65.1595,-134.07 77.8696,-117.893 87.0891,-106.159"/></g><g id="node6" class="node"><title>e</title><ellipse cx="27" cy="-90" fill="none" stroke="#000" rx="27" ry="18"/><text x="27" y="-86.3" font-family="serif" font-size="14" text-anchor="middle">e</text></g><g id="edge6" class="edge"><title>d--e</title><path fill="none" stroke="#000" d="M39.8848,-144.055C37.2513,-133.211 33.8444,-119.183 31.1954,-108.275"/></g><g id="node5" class="node"><title>f</title><ellipse cx="63" cy="-18" fill="none" stroke="#000" rx="27" ry="18"/><text x="63" y="-14.3" font-family="serif" font-size="14" text-anchor="middle">f</text></g><g id="edge4" class="edge"><title>c--f</title><path fill="none" stroke="#000" stroke-width="3" d="M90.6504,-72.7646C84.8345,-61.456 77.1103,-46.4367 71.3043,-35.1473"/></g><g id="edge7" class="edge"><title>e--f</title><path fill="none" stroke="#000" d="M35.3496,-72.7646C41.1655,-61.456 48.8897,-46.4367 54.6957,-35.1473"/></g></g></svg>